M48
; DRILL file {KiCad 9.0.7-9.0.7~ubuntu24.04.1} date 2026-01-18T18:11:26+0100
; FORMAT={-:-/ absolute / metric / decimal}
; #@! TF.CreationDate,2026-01-18T18:11:26+01:00
; #@! TF.GenerationSoftware,Kicad,Pcbnew,9.0.7-9.0.7~ubuntu24.04.1
; #@! TF.FileFunction,Plated,1,4,PTH
FMAT,2
METRIC
; #@! TA.AperFunction,Plated,PTH,ViaDrill
T1C0.300
; #@! TA.AperFunction,Plated,PTH,ComponentDrill
T2C0.350
; #@! TA.AperFunction,Plated,PTH,ComponentDrill
T3C1.000
%
G90
G05
T1
X140.92Y-94.15
X144.78Y-97.02
X145.16Y-98.27
X145.16Y-105.84
X146.49Y-87.9
X147.15Y-110.55
X148.0Y-92.08
X148.47Y-96.67
X148.5Y-108.56
X149.15Y-107.66
X149.24Y-109.92
X149.82Y-88.9
X149.89Y-100.85
X150.92Y-109.66
X151.15Y-89.22
X151.33Y-99.33
X151.98Y-89.44
X153.02Y-97.21
X153.23Y-98.02
X153.51Y-91.49
X153.82Y-97.42
X153.91Y-90.43
X154.04Y-96.18
X154.44Y-98.07
X154.72Y-91.8
X154.87Y-93.85
X155.26Y-98.16
X155.45Y-106.31
X155.67Y-93.46
X155.76Y-95.06
X155.995Y-104.625
X156.46Y-108.26
X156.77Y-99.6
X156.79Y-87.98
X157.23Y-102.92
X157.35Y-96.93
X157.48Y-97.72
X157.68Y-100.78
X158.44Y-90.3
X158.75Y-100.4
X158.97Y-95.06
X159.87Y-95.15
X160.67Y-109.69
X160.9Y-98.59
X161.1Y-103.64
X162.16Y-109.05
X162.59Y-108.23
X162.59Y-108.23
X163.48Y-90.36
X163.62Y-110.75
X163.73Y-107.52
X167.67Y-113.5
T2
X150.24Y-92.74
X150.24Y-93.84
X150.24Y-94.94
X151.34Y-92.74
X151.34Y-93.84
X151.34Y-94.94
X152.44Y-92.74
X152.44Y-93.84
X152.44Y-94.94
X152.54Y-100.82
X152.54Y-101.92
X152.54Y-103.02
X153.64Y-100.82
X153.64Y-101.92
X153.64Y-103.02
X154.74Y-100.82
X154.74Y-101.92
X154.74Y-103.02
T3
X140.88Y-98.025
X140.88Y-100.565
X144.04Y-84.0
X144.04Y-86.54
X144.04Y-112.1
X144.04Y-114.64
X146.58Y-84.0
X146.58Y-86.54
X146.58Y-112.1
X146.58Y-114.64
X149.12Y-84.0
X149.12Y-86.54
X149.12Y-112.1
X149.12Y-114.64
X151.66Y-84.0
X151.66Y-86.54
X151.66Y-112.1
X151.66Y-114.64
X154.2Y-84.0
X154.2Y-86.54
X154.2Y-112.1
X154.2Y-114.64
X156.74Y-84.0
X156.74Y-86.54
X156.74Y-112.1
X156.74Y-114.64
X159.28Y-84.0
X159.28Y-86.54
X159.28Y-112.1
X159.28Y-114.64
X161.82Y-84.0
X161.82Y-86.54
X161.82Y-112.1
X161.82Y-114.64
X164.36Y-84.0
X164.36Y-86.54
X164.36Y-112.1
X164.36Y-114.64
X166.28Y-98.59
X166.28Y-101.13
X166.28Y-103.67
X166.28Y-106.21
X166.28Y-108.75
X166.9Y-84.0
X166.9Y-86.54
X166.9Y-112.1
X166.9Y-114.64
M30
